<svg width="24" height="24" viewBox="0 0 24 24" fill="none" xmlns="http://www.w3.org/2000/svg">
<circle cx="12" cy="12" r="12" fill="#F9F9F9"/>
<path d="M8.5222 10.9222C8.77174 10.1673 9.25333 9.5104 9.89826 9.04533C10.5432 8.58025 11.3185 8.33073 12.1137 8.33237C13.015 8.33237 13.8299 8.65237 14.4699 9.1761L16.3323 7.31423C15.1974 6.3249 13.743 5.71423 12.1137 5.71423C9.591 5.71423 7.41927 7.15317 6.375 9.2609L8.5222 10.9222Z" fill="#EA4335"/>
<path d="M14.2699 15.3212C13.6886 15.6961 12.9505 15.8961 12.1153 15.8961C11.3233 15.8977 10.5509 15.6502 9.90739 15.1886C9.26389 14.7269 8.7819 14.0746 8.52967 13.3239L6.375 14.9596C6.90366 16.0296 7.72181 16.9299 8.73651 17.5583C9.7512 18.1866 10.9218 18.5178 12.1153 18.5143C13.6795 18.5143 15.1739 17.958 16.2934 16.9143L14.2705 15.3212H14.2699Z" fill="#34A853"/>
<path d="M16.2914 16.9143C17.4621 15.822 18.2221 14.1964 18.2221 12.1143C18.2221 11.7356 18.1639 11.3287 18.077 10.9506H12.1133V13.4236H15.5458C15.3767 14.2551 14.9218 14.8988 14.2685 15.3212L16.2914 16.9143Z" fill="#4285F4"/>
<path d="M8.52931 13.3238C8.39883 12.9339 8.33254 12.5254 8.33304 12.1142C8.33304 11.6971 8.39971 11.2966 8.52344 10.9222L6.37624 9.26086C5.93697 10.1476 5.71053 11.1246 5.71491 12.1142C5.71491 13.1382 5.95224 14.1035 6.37464 14.9595L8.52931 13.3238Z" fill="#FBBC05"/>
</svg>
